# xmcd
#
# Track frame offsets: 
#        150
#        13535
#        26796
#        39792
#        53738
#        67248
#        80621
#        94337
#        107734
#        119486
#        132770
#        146246
#        159854
#        173018
#        185574
#        198866
#        212062
#        224034
#        237485
#        250554
#        264561
#
# Disc length: 3682 seconds
#
# Revision: 0
# Processed by: cddbd v1.5.2PL0 Copyright (c) Steve Scherf et al.
# Submitted via: ExactAudioCopy v0.99pb5
#
DISCID=320e6015
DTITLE=Leroy Carr - Leroy Carr - The Best of Leroy Carr, Vol. 2 - Good
DTITLE=Women Is All I Crave
DYEAR=1900
DGENRE=30s
TTITLE0=I Believe I'll Make a Change
TTITLE1=Don't Start No Stuff
TTITLE2=Bobo Stomp
TTITLE3=Big Four Blues
TTITLE4=Hard Hearted Papa
TTITLE5=You Left Me Crying
TTITLE6=Evil Hearted Woman
TTITLE7=Good Woman Blues
TTITLE8=Hustler's Blues
TTITLE9=Eleven Twenty-Nine Blues
TTITLE10=You Got Me Grieving
TTITLE11=Bread Baker
TTITLE12=Tight Time Blues
TTITLE13=Black Wagon Blues
TTITLE14=Shinin' Pistol
TTITLE15=It's Too Short
TTITLE16=My Good for Nothin' Gal
TTITLE17=Suicide Blues
TTITLE18=Church House Blues
TTITLE19=Six Cold Feet of Ground
TTITLE20=Stormy Night Blues
EXTD=
EXTT0=
EXTT1=
EXTT2=
EXTT3=
EXTT4=
EXTT5=
EXTT6=
EXTT7=
EXTT8=
EXTT9=
EXTT10=
EXTT11=
EXTT12=
EXTT13=
EXTT14=
EXTT15=
EXTT16=
EXTT17=
EXTT18=
EXTT19=
EXTT20=
PLAYORDER=
